name D:\school\WTK\thesis\model\3dpredictsim\Results\batch_windlass\Pog_s1_tmt_aCst_d00_k1000_WL30_ig24.mot
datacolumns 128
datarows 4
range 0.54629734 0.57907518
endheader
time	pelvis_tilt	pelvis_list	pelvis_rotation	pelvis_tx	pelvis_ty	pelvis_tz	hip_flexion_l	hip_adduction_l	hip_rotation_l	hip_flexion_r	hip_adduction_r	hip_rotation_r	knee_angle_l	knee_angle_r	ankle_angle_l	ankle_angle_r	subtalar_angle_l	subtalar_angle_r	tmt_angle_l	tmt_angle_r	mtp_angle_l	mtp_angle_r	lumbar_extension	lumbar_bending	lumbar_rotation	arm_flex_l	arm_add_l	arm_rot_l	arm_flex_r	arm_add_r	arm_rot_r	elbow_flex_l	elbow_flex_r	pro_sup_l	pro_sup_r	glut_med1_l/activation	glut_med2_l/activation	glut_med3_l/activation	glut_min1_l/activation	glut_min2_l/activation	glut_min3_l/activation	semimem_l/activation	semiten_l/activation	bifemlh_l/activation	bifemsh_l/activation	sar_l/activation	add_long_l/activation	add_brev_l/activation	add_mag1_l/activation	add_mag2_l/activation	add_mag3_l/activation	tfl_l/activation	pect_l/activation	grac_l/activation	glut_max1_l/activation	glut_max2_l/activation	glut_max3_l/activation	iliacus_l/activation	psoas_l/activation	quad_fem_l/activation	gem_l/activation	peri_l/activation	rect_fem_l/activation	vas_med_l/activation	vas_int_l/activation	vas_lat_l/activation	med_gas_l/activation	lat_gas_l/activation	soleus_l/activation	tib_post_l/activation	flex_dig_l/activation	flex_hal_l/activation	tib_ant_l/activation	per_brev_l/activation	per_long_l/activation	per_tert_l/activation	ext_dig_l/activation	ext_hal_l/activation	ercspn_l/activation	intobl_l/activation	extobl_l/activation	glut_med1_r/activation	glut_med2_r/activation	glut_med3_r/activation	glut_min1_r/activation	glut_min2_r/activation	glut_min3_r/activation	semimem_r/activation	semiten_r/activation	bifemlh_r/activation	bifemsh_r/activation	sar_r/activation	add_long_r/activation	add_brev_r/activation	add_mag1_r/activation	add_mag2_r/activation	add_mag3_r/activation	tfl_r/activation	pect_r/activation	grac_r/activation	glut_max1_r/activation	glut_max2_r/activation	glut_max3_r/activation	iliacus_r/activation	psoas_r/activation	quad_fem_r/activation	gem_r/activation	peri_r/activation	rect_fem_r/activation	vas_med_r/activation	vas_int_r/activation	vas_lat_r/activation	med_gas_r/activation	lat_gas_r/activation	soleus_r/activation	tib_post_r/activation	flex_dig_r/activation	flex_hal_r/activation	tib_ant_r/activation	per_brev_r/activation	per_long_r/activation	per_tert_r/activation	ext_dig_r/activation	ext_hal_r/activation	ercspn_r/activation	intobl_r/activation	extobl_r/activation	
          0.54629734	         -2.92886835	          1.59094149	         -5.74043729	          0.68287167	          0.85915583	          0.00243900	         31.62989741	          2.46168862	         -2.24891967	        -17.65346165	         -1.11538660	          6.90758485	        -15.64025127	         -8.60889236	          7.89505995	          2.04624384	         -2.03331330	         10.95826431	         -0.67951024	         -8.20963099	          1.93839525	         27.17732000	         -1.31030356	          0.06335777	          1.99549900	         -7.63682826	        -13.46371526	         12.39566520	          6.84838111	        -13.45889762	         18.93237103	         13.61923992	         31.64841337	         86.51662706	         86.51662706	          0.05910494	          0.05910495	          0.05000001	          0.05910496	          0.05910496	          0.05910493	          0.05910497	          0.05910495	          0.13854535	          0.05000001	          0.05000001	          0.13642506	          0.29936505	          0.11200922	          0.17289597	          0.09712875	          0.05000001	          0.08698355	          0.08929832	          0.05000006	          0.05000005	          0.07540115	          0.05910507	          0.05628659	          0.40397190	          0.26638290	          0.13489346	          0.05000003	          0.13409434	          0.13814302	          0.11751490	          0.06144045	          0.05859886	          0.05910494	          0.05000000	          0.05000003	          0.05000004	          0.62039965	          0.32587823	          0.20062626	          0.47499856	          0.61518314	          0.38745706	          0.05828906	          0.10367113	          0.10137880	          0.35201377	          0.08963009	          0.05718761	          0.30653235	          0.19440197	          0.09291051	          0.05000018	          0.05000001	          0.05000000	          0.06137221	          0.08899531	          0.09576351	          0.16798694	          0.05000012	          0.05000020	          0.05000005	          0.26513499	          0.05954768	          0.05000009	          0.05000006	          0.05000003	          0.05000004	          0.30680697	          0.48656233	          0.05000000	          0.05000001	          0.05000001	          0.19063423	          0.07713021	          0.07737080	          0.06707895	          0.26760105	          0.34551179	          0.23672657	          0.21345940	          0.18219016	          0.26651028	          0.05000000	          0.09492126	          0.15526705	          0.05000000	          0.05000000	          0.05000000	          0.05000000	          0.05000000	          0.06986796	
          0.55722329	         -2.92231570	          1.68364431	         -5.97464424	          0.69955671	          0.85841366	          0.00222228	         30.97304738	          2.84248957	         -2.00676643	        -17.43706767	         -1.40771639	          6.67061785	        -15.95926522	        -10.63047721	          7.43358997	          1.07663643	         -2.45684858	         11.82695942	         -0.79982343	         -8.74144164	          2.21481959	         28.20200099	         -1.10067186	         -0.18282757	          2.06023055	         -8.69781190	        -13.45331457	         12.23068037	          6.58137817	        -13.47143986	         19.07958538	         13.52955778	         32.72731486	         86.51662706	         86.51662706	          0.05000000	          0.05000000	          0.10913391	          0.05000001	          0.05000000	          0.05000000	          0.05000002	          0.05000001	          0.11720282	          0.05000002	          0.06417280	          0.11540917	          0.25324871	          0.32522088	          0.19889270	          0.09322246	          0.05000011	          0.07358447	          0.08734985	          0.06019933	          0.09037641	          0.09882591	          0.05000010	          0.06986789	          0.50632199	          0.22534736	          0.11411350	          0.06986791	          0.22702773	          0.23620699	          0.19905987	          0.06986788	          0.06986789	          0.05000000	          0.06986790	          0.06986958	          0.06986790	          0.52482879	          0.33992510	          0.25396369	          0.40182635	          0.52041588	          0.32777037	          0.05000000	          0.08770088	          0.08576167	          0.29778703	          0.07582282	          0.05000027	          0.25931189	          0.16445489	          0.07859790	          0.05000043	          0.05000005	          0.05000024	          0.05191799	          0.07528584	          0.20103000	          0.21935191	          0.17849244	          0.05910508	          0.12876060	          0.22429168	          0.05037455	          0.05000007	          0.05006130	          0.05910482	          0.05910495	          0.25954421	          0.43194838	          0.05910490	          0.05910490	          0.05000004	          0.16126755	          0.13642493	          0.14742392	          0.13642479	          0.22637785	          0.29228665	          0.20025949	          0.18057657	          0.15412429	          0.22545512	          0.05000001	          0.08029891	          0.13134860	          0.05000000	          0.05000001	          0.05000002	          0.05948458	          0.06986790	          0.05910501	
          0.56814923	         -2.91176136	          1.77537478	         -6.18003045	          0.71646904	          0.85756107	          0.00202602	         30.09593753	          3.14007004	         -1.74267033	        -17.15378342	         -1.68617514	          6.41580465	        -16.31893294	        -12.77538161	          6.89862446	         -0.01713894	         -2.87204953	         12.62032659	         -0.87134327	         -9.14635884	          2.37896694	         28.79740343	         -0.87603658	         -0.43324434	          2.11395284	         -9.75556832	        -13.45067969	         12.12548665	          6.23292806	        -13.48658743	         19.13330684	         13.44649251	         33.80888040	         86.51662706	         86.51662706	          0.24456044	          0.24065502	          0.29440885	          0.34699515	          0.20212063	          0.17147693	          0.08988964	          0.10648474	          0.11901090	          0.05000005	          0.05910489	          0.09763071	          0.21423645	          0.27512151	          0.16825384	          0.07886181	          0.05000003	          0.06224918	          0.07389387	          0.12438865	          0.10531380	          0.08360205	          0.05910494	          0.05910495	          0.42832449	          0.19063323	          0.25281026	          0.05910495	          0.19205473	          0.19981996	          0.16839524	          0.05910493	          0.05910494	          0.05910494	          0.05910494	          0.05910637	          0.05910497	          0.57028603	          0.46235385	          0.21484132	          0.38038307	          0.64443821	          0.41570137	          0.05059281	          0.10341520	          0.07255032	          0.35900727	          0.06414253	          0.05000000	          0.35492539	          0.13912107	          0.06649012	          0.05315150	          0.05000001	          0.05000000	          0.05000005	          0.06986792	          0.17006190	          0.18556138	          0.15099618	          0.05000014	          0.10892539	          0.20056570	          0.08260548	          0.05000004	          0.05000005	          0.05000003	          0.05000003	          0.21956216	          0.41483608	          0.05000000	          0.05000001	          0.05000000	          0.13642473	          0.11540905	          0.12471368	          0.11540893	          0.19150496	          0.24726070	          0.16941007	          0.15275925	          0.13038188	          0.19072439	          0.10122995	          0.16247869	          0.17210208	          0.17403154	          0.15630754	          0.05000028	          0.06716127	          0.05910494	          0.05000005	
          0.57907518	         -2.89909120	          1.86271457	         -6.35000165	          0.73337950	          0.85658767	          0.00180346	         29.10869476	          3.42159953	         -1.48299258	        -16.76939995	         -1.94673221	          6.15957980	        -16.54530334	        -15.10486782	          6.38845704	         -1.12304787	         -3.30330620	         13.33708470	         -1.07079698	         -9.26862011	          2.53301763	         28.59160931	         -0.65993288	         -0.68240183	          2.15702300	        -10.76064684	        -13.45258308	         12.09392920	          5.84052766	        -13.51152015	         19.11523537	         13.34657200	         34.87816345	         86.51662706	         86.51662706	          0.36547060	          0.37050570	          0.41410638	          0.29354155	          0.17098459	          0.30046813	          0.07604240	          0.11374269	          0.10067760	          0.07673232	          0.05000004	          0.08259097	          0.18123392	          0.23273984	          0.21669505	          0.14778222	          0.05000002	          0.05266044	          0.13335836	          0.23287822	          0.17601150	          0.14656712	          0.05000000	          0.05000001	          0.36234229	          0.16126672	          0.24321925	          0.05000000	          0.20055168	          0.24305725	          0.18928943	          0.05000000	          0.05000000	          0.05000000	          0.05000000	          0.05000120	          0.05000002	          0.68472257	          0.39112954	          0.19232614	          0.64150763	          0.66886432	          0.49352907	          0.07763238	          0.08748437	          0.06137415	          0.30370319	          0.05426156	          0.05000001	          0.30025012	          0.11768986	          0.05624751	          0.07520383	          0.05000003	          0.05000005	          0.05000000	          0.05910498	          0.20042479	          0.17793399	          0.21972215	          0.05002388	          0.13642444	          0.16966913	          0.06988037	          0.05000009	          0.05000044	          0.05000028	          0.05000028	          0.18573921	          0.36170799	          0.05000003	          0.05000015	          0.05000003	          0.11540888	          0.09763061	          0.10550188	          0.09763051	          0.16200415	          0.20917087	          0.14331291	          0.12922712	          0.11029693	          0.16134383	          0.17718268	          0.16095595	          0.14559292	          0.15699806	          0.22587818	          0.10618216	          0.09565066	          0.05000000	          0.05000000	
